<?xml version="1.0" standalone="no"?>
<!DOCTYPE svg PUBLIC "-//W3C//DTD SVG 20010904//EN"
 "http://www.w3.org/TR/2001/REC-SVG-20010904/DTD/svg10.dtd">
<svg version="1.0" xmlns="http://www.w3.org/2000/svg"
 width="700.000000pt" height="700.000000pt" viewBox="0 0 700.000000 700.000000"
 preserveAspectRatio="xMidYMid meet">
<metadata>
Created by potrace 1.14, written by Peter Selinger 2001-2017
</metadata>
<g transform="translate(0.000000,700.000000) scale(0.100000,-0.100000)"
fill="#000000" stroke="none">
<path d="M4685 6914 c-93 -25 -116 -30 -162 -40 -16 -3 -75 -17 -133 -31 -58
-14 -113 -27 -123 -29 -11 -2 -38 -14 -60 -28 -32 -19 -386 -268 -512 -360
-32 -24 -258 -184 -279 -198 -10 -7 -64 -47 -119 -88 -82 -61 -106 -84 -126
-125 -43 -88 -26 -210 39 -275 11 -11 32 -39 47 -62 23 -37 27 -54 27 -118 1
-91 2 -89 -155 -316 -109 -158 -125 -176 -200 -230 -503 -365 -543 -397 -572
-455 -35 -69 -38 -146 -9 -211 10 -24 50 -75 89 -113 78 -79 101 -129 96 -209
-5 -83 -46 -150 -133 -215 -19 -14 -37 -28 -40 -32 -3 -3 -50 -41 -105 -84
-55 -44 -102 -82 -105 -85 -3 -3 -34 -29 -70 -57 -89 -70 -115 -100 -141 -158
-21 -46 -23 -66 -24 -266 -1 -213 -2 -217 -28 -270 -15 -30 -42 -70 -59 -90
-18 -20 -55 -62 -83 -95 -27 -32 -60 -69 -73 -83 -12 -13 -41 -47 -65 -74 -23
-28 -47 -55 -52 -61 -6 -6 -53 -60 -105 -120 -52 -60 -110 -126 -128 -145 -43
-47 -81 -126 -85 -176 -5 -50 15 -136 38 -172 43 -66 188 -165 268 -182 23 -6
143 -10 267 -10 248 0 280 -5 350 -61 36 -28 54 -54 110 -155 63 -113 108
-146 259 -186 138 -37 146 -40 198 -77 28 -21 51 -51 73 -96 45 -90 40 -151
-23 -302 -25 -60 -48 -119 -52 -130 -6 -23 -8 -99 -2 -124 8 -36 90 -279 107
-317 23 -50 78 -105 128 -129 77 -37 133 -32 457 42 11 3 31 7 44 10 36 8 99
42 131 72 33 32 56 75 103 192 133 329 152 360 255 408 53 24 54 24 285 17
128 -3 275 -8 327 -10 52 -3 158 -7 235 -10 391 -15 589 -28 680 -42 57 -8 75
-6 95 12 46 42 105 257 90 331 -9 48 -9 48 -160 369 -103 220 -122 267 -122
310 -2 117 16 146 204 337 89 90 168 174 177 188 42 64 53 164 26 240 -16 44
-47 87 -129 175 -66 71 -97 138 -97 212 -1 49 11 90 67 239 109 291 97 351
-101 509 -123 97 -147 140 -148 255 -1 80 22 135 88 205 193 207 215 241 219
337 4 77 -5 98 -127 318 l-92 164 0 76 c0 84 10 107 82 197 50 62 67 116 61
195 -6 82 -45 139 -146 214 -117 88 -155 143 -176 254 -3 14 -14 70 -26 125
-12 55 -24 109 -26 120 -2 11 -15 70 -28 130 -14 61 -28 126 -31 145 -3 19
-10 49 -15 65 -5 17 -21 86 -35 154 -30 146 -45 182 -101 236 -78 77 -176 91
-339 49z"/>
</g>
</svg>
