<svg viewBox="0 0 1721 445" xmlns="http://www.w3.org/2000/svg">
    <path d="M1171.27 235.065L1180.48 225.232C1185.17 220.22 1193.41 221.322 1196.62 227.392L1198.91 231.728C1200.23 234.214 1199.99 237.234 1198.32 239.49C1196.3 242.202 1196.41 245.943 1198.58 248.531L1208.34 260.163C1209.41 261.44 1210 263.053 1210 264.72V274.11C1210 276.042 1207.8 277.151 1206.25 276.002C1204.35 274.599 1201.8 276.552 1202.66 278.751L1207.79 291.901C1208.33 293.277 1208.38 294.796 1207.93 296.202L1202.15 314.209C1201.5 316.225 1202.24 318.429 1203.97 319.65C1206.16 321.196 1206.68 324.225 1205.13 326.413L1202.17 330.597C1199.5 334.357 1199.76 339.453 1202.8 342.921L1204.66 345.042C1206.72 347.404 1207.56 350.599 1206.92 353.671L1205.89 358.606C1205.43 360.782 1204.27 362.746 1202.57 364.185L1195.9 369.853C1193.56 371.836 1190.35 372.429 1187.46 371.409C1182.61 369.699 1177.36 372.583 1176.2 377.588L1174.12 386.591C1173.79 388.001 1172.54 389 1171.09 389C1168.94 389 1167.44 386.875 1168.16 384.851L1170 379.655C1171.62 375.08 1167.8 370.42 1162.99 371.112C1160.62 371.455 1158.24 370.448 1156.84 368.499L1155.6 366.78C1154.38 365.095 1152.34 364.217 1150.28 364.493C1144.87 365.221 1141.69 358.584 1145.66 354.825L1154.33 346.617C1155.19 345.793 1155.69 344.648 1155.69 343.45C1155.69 341.041 1153.7 339.088 1151.29 339.088C1146.97 339.088 1145 333.604 1148.43 330.983L1157.64 323.96C1160.76 321.576 1161.42 317.139 1159.12 313.952L1158.76 313.455C1158.1 312.543 1157.75 311.447 1157.75 310.322V308.72C1157.75 306.148 1155.39 304.226 1152.87 304.752C1148.79 305.602 1146.24 300.488 1149.36 297.738L1161.36 287.191C1163.13 285.635 1163.22 282.911 1161.57 281.238C1160.16 279.818 1159.98 277.588 1161.15 275.965L1162.29 274.395C1163.72 272.412 1163.89 269.785 1162.72 267.634L1162.68 267.557C1161.37 265.139 1161.72 262.16 1163.56 260.112L1175.4 246.896C1177.28 244.799 1176.09 241.453 1173.31 241.01C1170.49 240.561 1169.32 237.147 1171.27 235.065Z" fill="#22CD67"/>
    <path d="M888.757 34.989C879.412 24.2848 866.573 9.72368 860.497 3.28865C858.426 1.09606 855.973 1.36086 854.075 3.70366L841.497 19.2226C840.666 20.2481 839.64 21.099 838.478 21.726L825.069 28.9649C823.966 29.5601 822.985 30.3572 822.177 31.3147L799.047 58.7197C797.036 61.102 798.009 64.7585 800.938 65.8262C804.37 67.0775 804.947 71.688 801.928 73.7459L786.029 84.5844C782.08 87.2768 782.734 93.2866 787.171 95.0657C791.306 96.7242 792.237 102.163 788.887 105.102L781.224 111.824C778.439 114.267 778.944 118.738 782.204 120.498C786.191 122.65 785.831 128.483 781.61 130.128L780.297 130.64C775.798 132.394 775.375 138.595 779.593 140.945C780.295 141.335 780.906 141.87 781.387 142.512L792.816 157.79C794.916 160.597 798.333 162.1 801.821 161.75L805.582 161.373C807.89 161.141 810.207 161.72 812.136 163.009L823.499 170.603C826.619 172.688 830.643 172.852 833.921 171.026L837.969 168.771C839.457 167.942 841.132 167.507 842.835 167.507H870.803C874.536 167.507 877.44 164.263 877.029 160.553C876.719 157.756 878.312 155.096 880.924 154.049L883.493 153.019C889.676 150.539 891.697 142.786 887.457 137.647C880.597 129.332 873.331 120.761 872.619 120.761H885.819C893.904 120.761 898.649 111.665 894.02 105.036L892.291 102.56C889.285 98.2542 890.301 92.3319 894.57 89.2747L894.957 88.998C899.971 85.4069 900.122 78.0028 895.258 74.21L886.481 67.3657C884.428 65.7655 884.984 62.5245 887.453 61.6997C889.945 60.8667 890.48 57.5785 888.379 55.999L886.74 54.767C884.715 53.2441 884.42 50.317 886.101 48.4209L888.707 45.4821C891.359 42.4909 891.386 38.0005 888.757 34.989Z" fill="#00CABF"/>
    <path d="M562.021 297.939L542.973 277.793C539.358 273.97 533.398 273.602 529.34 276.951L504.167 297.731C500.382 300.856 499.454 306.317 501.936 310.551C503.396 313.043 503.724 316.071 502.807 318.81L501.082 323.959C500.665 325.206 500.006 326.358 499.142 327.35L492.372 335.126C489.912 337.952 489.871 342.148 492.276 345.021C495.141 348.443 494.466 353.583 490.814 356.148L486.72 359.025C483.511 361.28 481.916 365.203 482.642 369.058L483.643 374.371C484.068 376.627 483.704 378.961 482.612 380.98L475.096 394.874C472.833 399.058 474.385 404.284 478.565 406.553C480.423 407.562 482.587 407.853 484.646 407.371L492.501 405.531C495.391 404.854 498.321 406.489 499.263 409.303C499.985 411.458 501.909 412.986 504.172 413.201L511.344 413.881C516.478 414.367 520.4 418.679 520.4 423.836V434.222C520.4 439.609 525.574 443.485 530.744 441.972C534.185 440.964 536.55 437.808 536.55 434.222V425.381C536.55 419.614 541.415 415.042 547.171 415.4L563.531 416.418C565.747 416.556 567.946 415.952 569.781 414.702L576.53 410.106C581.174 406.943 582.301 400.576 579.025 396.011L575.337 390.871C572.646 387.12 572.872 382.014 575.884 378.516L576.892 377.346C579.961 373.781 580.131 368.56 577.301 364.803L572.767 358.785C571.611 357.251 571.764 355.1 573.125 353.745C574.486 352.39 574.639 350.238 573.483 348.704L570.333 344.523C568.299 341.823 568.158 338.144 569.978 335.296C572.078 332.012 571.537 327.698 568.693 325.033L563.014 319.713C559.892 316.788 559.598 311.934 562.344 308.654C564.97 305.517 564.831 300.911 562.021 297.939Z" fill="#684A42"/>
    <defs>
        <path id="text" d="M1 324C254.75 113.001 446.827 187.021 753.204 266.636C1094.89 355.426 1273.27 37.6804 1727 153.905" stroke="black"/>
    </defs>
    <text>
        <textPath font-family="Gobold" font-size="92" href="#text">
            FAQ FAQ FAQ FAQ FAQ FAQ FAQ FAQ FAQ FAQ FAQ FAQ FAQ FAQ FAQ FAQ
        </textPath>
    </text>
</svg>
